# xmcd
#
# Track frame offsets:
# 150
# 18366
# 40105
# 65078
# 84828
# 110219
# 119164
# 142394
# 166092
# 189359
# 193867
# 215423
#
# Disc length: 3227 seconds
#
#
# Revision: 0
# Processed by: cddbd v1.5.1PL0 Copyright (c) Steve Scherf et al.
# Submitted via: FreeRIP 2.942 
#
DISCID=b30c990c
DTITLE=Maker - Shooting the Breeze
DYEAR=2005
DGENRE=Hip-Hop
TTITLE0=Mango Lassi
TTITLE1=Remember The Name
TTITLE2=Love Tomorrow
TTITLE3=Shooting The Breeze
TTITLE4=Broken Promises
TTITLE5=La Saluda
TTITLE6=Streetstrut (Extended)
TTITLE7=Live It (Part 1 and 2)
TTITLE8=Train Til' Nowhere
TTITLE9=Dialtones
TTITLE10=Augusta 90B
TTITLE11=Sandcastle
EXTD=
EXTT0=
EXTT1=
EXTT2=
EXTT3=
EXTT4=
EXTT5=
EXTT6=
EXTT7=
EXTT8=
EXTT9=
EXTT10=
EXTT11=
PLAYORDER=
